<?xml version="1.0" encoding="utf-8"?>
<!-- Generator: Adobe Illustrator 26.0.2, SVG Export Plug-In . SVG Version: 6.00 Build 0)  -->
<svg class="icon icon-bookmark" version="1.1" id="Layer_1" xmlns="http://www.w3.org/2000/svg" xmlns:xlink="http://www.w3.org/1999/xlink" x="0px" y="0px"
	 viewBox="0 0 384 512" style="enable-background:new 0 0 384 512;" xml:space="preserve">
<polygon class="fill" points="354.5,480.5 192,396.6 29.5,480.5 29.5,253.4 29.5,26.4 192,26.4 354.5,26.4 354.5,253.4 "/>
<path class="outline" d="M336,0H48C21.5,0,0,21.5,0,48v431.9c0,24.7,26.8,40.1,48.1,27.6L192,423.6l143.9,83.9c21.3,11.6,48.1-2.9,48.1-27.6V48
	C384,21.5,362.5,0,336,0z M336,452l-144-84L48,452V54c0-3.4,2.6-6,5.1-6h276c4.3,0,6.9,2.6,6.9,6V452z"/>
</svg>
