<svg xmlns="http://www.w3.org/2000/svg" viewBox="0 0 8 6.1"><path d="M6.78.51a6.16 6.16 0 0 0-1.63-.5 2.71 2.71 0 0 0-.2.42 5.62 5.62 0 0 0-1.83 0 2.74 2.74 0 0 0-.21-.42 6.09 6.09 0 0 0-1.62.5A6.78 6.78 0 0 0 0 5.06a6.61 6.61 0 0 0 2 1 5.59 5.59 0 0 0 .41-.66 3.93 3.93 0 0 1-.62-.3L2 4.95a4.71 4.71 0 0 0 4 0l.13.1a3.64 3.64 0 0 1-.63.3 4.53 4.53 0 0 0 .41.66H6a6.66 6.66 0 0 0 2-1A6.71 6.71 0 0 0 6.78.51ZM2.67 4.15a.77.77 0 0 1-.67-.8.77.77 0 0 1 .72-.81.76.76 0 0 1 .72.81.76.76 0 0 1-.72.8Zm2.66 0a.77.77 0 0 1-.72-.8.77.77 0 0 1 .72-.81.76.76 0 0 1 .72.81.76.76 0 0 1-.72.8Z"/></svg>