<svg xmlns="http://www.w3.org/2000/svg" viewBox="0 0 8 7.01"><path d="M7.25 0H.74A.76.76 0 0 0 0 .76v5.5a.76.76 0 0 0 .74.76h6.51A.76.76 0 0 0 8 6.26V.76A.74.74 0 0 0 7.25 0ZM1.74 5.89a.12.12 0 0 1-.13.12H.86a.12.12 0 0 1-.12-.12v-.75a.12.12 0 0 1 .12-.13h.74a.12.12 0 0 1 .12.13Zm0-2a.13.13 0 0 1-.13.12H.86a.12.12 0 0 1-.12-.12v-.76a.12.12 0 0 1 .12-.12h.74a.12.12 0 0 1 .12.12v.76Zm0-2a.13.13 0 0 1-.13.13H.86a.12.12 0 0 1-.12-.13v-.76a.12.12 0 0 1 .12-.12h.74a.12.12 0 0 1 .12.12ZM5.5 5.76a.25.25 0 0 1-.25.25H2.74a.25.25 0 0 1-.25-.25v-1.5a.25.25 0 0 1 .25-.25h2.51a.25.25 0 0 1 .25.25Zm0-3a.25.25 0 0 1-.25.25H2.74a.25.25 0 0 1-.25-.25v-1.5a.25.25 0 0 1 .25-.25h2.51a.25.25 0 0 1 .25.25Zm1.75 3.13a.12.12 0 0 1-.13.12h-.73a.11.11 0 0 1-.11-.12v-.75a.12.12 0 0 1 .12-.13h.74a.12.12 0 0 1 .12.13v.75Zm0-2a.13.13 0 0 1-.13.12h-.73a.13.13 0 0 1-.13-.12v-.76a.13.13 0 0 1 .13-.12h.73a.13.13 0 0 1 .13.12Zm0-2a.13.13 0 0 1-.13.13h-.73a.13.13 0 0 1-.13-.13v-.76a.12.12 0 0 1 .11-.12h.74a.12.12 0 0 1 .12.12v.75Z"/></svg>