<svg xmlns="http://www.w3.org/2000/svg" viewBox="0 0 8 7.8"><path d="M2.68 6.28s0 .06-.09.06-.09 0-.09-.06 0-.06.09-.06.09.02.09.06Zm-.51-.07s0 .07.07.08.09 0 .1 0 0-.06-.07-.08a.1.1 0 0 0-.1 0Zm.72 0c-.05 0-.08 0-.08.08a.08.08 0 0 0 .1 0S3 6.26 3 6.23s-.07-.05-.11-.05ZM4 0a3.87 3.87 0 0 0-4 3.9 4.05 4.05 0 0 0 2.73 3.89c.21 0 .28-.09.28-.19v-1s-1.13.3-1.37-.47c0 0-.18-.47-.45-.59 0 0-.37-.26 0-.25a.84.84 0 0 1 .62.41.85.85 0 0 0 1.19.34.81.81 0 0 1 .26-.54c-.91-.1-1.82-.23-1.82-1.78a1.21 1.21 0 0 1 .39-.95 1.49 1.49 0 0 1 0-1.1c.33-.1 1.11.44 1.11.44a3.79 3.79 0 0 1 1-.14 3.86 3.86 0 0 1 1 .14s.77-.55 1.11-.44a1.55 1.55 0 0 1 0 1.1 1.23 1.23 0 0 1 .42.95c0 1.55-.95 1.68-1.85 1.78a1 1 0 0 1 .38.75V7.6c0 .14.08.23.28.19A4 4 0 0 0 8 3.9 4 4 0 0 0 4 0ZM1.57 5.56a.06.06 0 0 0 0 .09.06.06 0 0 0 .08 0s0 0 0-.08a.06.06 0 0 0-.08-.01Zm-.18-.13v.07c0 .07.06 0 .07 0s0 0 0-.06a.08.08 0 0 0-.07-.01Zm.53.58v.1c0 .03.08 0 .1 0s0-.07 0-.1-.08-.03-.1 0Zm-.19-.24a.07.07 0 0 0 0 .09s.07.06.09 0 0-.06 0-.1a.06.06 0 0 0-.09 0Z"/></svg>