<svg xmlns="http://www.w3.org/2000/svg" viewBox="0 0 8 6.22"><path d="M7.33 0H2a.67.67 0 0 0-.67.67v3.55a.67.67 0 0 0 .67.67h5.33A.67.67 0 0 0 8 4.22V.67A.67.67 0 0 0 7.33 0ZM3.1.89a.44.44 0 0 1 .44.44.43.43 0 0 1-.44.45.45.45 0 0 1-.45-.45.46.46 0 0 1 .45-.44Zm3.76 3a.22.22 0 0 1-.19.12h-4a.23.23 0 0 1-.2-.12.21.21 0 0 1 0-.23l1-1.34a.21.21 0 0 1 .18-.09.24.24 0 0 1 .18.09l.31.43L5 1.43a.2.2 0 0 1 .18-.1.23.23 0 0 1 .19.1l1.48 2.22a.21.21 0 0 1 .01.23Zm-.53 1.66H1.67a1 1 0 0 1-1-1V1.22a.34.34 0 0 0-.67 0v3.33a1.67 1.67 0 0 0 1.67 1.67h4.66a.34.34 0 1 0 0-.67Z"/></svg>