<svg xmlns="http://www.w3.org/2000/svg" viewBox="0 0 448 512">
    <path class="st0" d="M368.6 142.7 241 15.1c-4.6-4.6-10.6-7.1-17-7.1s-12.4 2.5-16.9 7L79.5 142.6c-9.7 9.7-9.8 25.8.3 35.1C84.3 181.8 90 184 96 184c6.4 0 12.4-2.5 17-7l73.4-73.3L200 90.1h.1V319.4c0 14.1 11.6 25.6 25.7 24.6 12.4-.9 22.3-11.3 22.3-23.9v-230s.1-.1.1 0l13.6 13.6 73 73c4.2 4.2 9.6 6.9 15.5 7.3 7.2.5 14.2-2.1 19.2-7.3 8.9-9.5 8.4-24.7-.9-34zM440 416v-64c0-13.2-10.8-24-24-24s-24 10.8-24 24v64c0 22.1-17.9 40-40 40H96c-22.1 0-40-17.9-40-40v-64c0-13.2-10.8-24-24-24S8 338.8 8 352v64c0 48.5 39.5 88 88 88h256c48.5 0 88-39.5 88-88z" />
</svg>