<?xml version="1.0" encoding="utf-8"?>
<!-- Generator: Adobe Illustrator 26.0.2, SVG Export Plug-In . SVG Version: 6.00 Build 0)  -->
<svg xmlns="http://www.w3.org/2000/svg" viewBox="0 0 448 512" class="icon icon-share">
    <path class="st0" d="M368.6 142.7 241 15.1c-4.6-4.6-10.6-7.1-17-7.1-6.4 0-12.4 2.5-16.9 7L79.5 142.6c-9.7 9.7-9.8 25.8.3 35.1C84.3 181.8 90 184 96 184c6.4 0 12.4-2.5 17-7l73.4-73.3 13.6-13.6c0 0 .1 0 .1 0v19.2 210.1c0 14.1 11.6 25.6 25.7 24.6 12.4-.9 22.3-11.3 22.3-23.9V109.3 90.1c0 0 .1-.1.1 0l13.6 13.6 73 73c4.2 4.2 9.6 6.9 15.5 7.3 7.2.5 14.2-2.1 19.2-7.3C378.4 167.2 377.9 152 368.6 142.7zM440 416v-64c0-13.2-10.8-24-24-24-13.2 0-24 10.8-24 24v64c0 22.1-17.9 40-40 40H96c-22.1 0-40-17.9-40-40v-64c0-13.2-10.8-24-24-24S8 338.8 8 352v64c0 48.5 39.5 88 88 88h256C400.5 504 440 464.5 440 416z" />
</svg>